<svg xmlns="http://www.w3.org/2000/svg" width="25" height="24" fill="none" viewBox="0 0 25 24">
  <g clip-path="url(#a)">
    <path fill="#000" fill-rule="evenodd" d="M2.8 4.8a.5.5 0 0 0-.5.5v13.4a.5.5 0 0 0 .5.5h1.4a.5.5 0 0 0 .5-.5V5.3a.5.5 0 0 0-.5-.5H2.8ZM2 3A1.5 1.5 0 0 0 .5 4.5v15A1.5 1.5 0 0 0 2 21h3a1.5 1.5 0 0 0 1.5-1.5v-15A1.5 1.5 0 0 0 5 3H2Zm8.3 1.8a.5.5 0 0 0-.5.5v13.4a.5.5 0 0 0 .5.5h1.4a.5.5 0 0 0 .5-.5V5.3a.5.5 0 0 0-.5-.5h-1.4ZM9.5 3A1.5 1.5 0 0 0 8 4.5v15A1.5 1.5 0 0 0 9.5 21h3a1.5 1.5 0 0 0 1.5-1.5v-15A1.5 1.5 0 0 0 12.5 3h-3Zm7.952 4.462a.5.5 0 0 0-.334.623l3.164 10.447a.5.5 0 0 0 .624.334l.957-.29a.5.5 0 0 0 .333-.624L19.032 7.505a.5.5 0 0 0-.623-.333l-.957.29Zm-1.537-1.624a1.5 1.5 0 0 0-1.001 1.87l3.744 12.36a1.5 1.5 0 0 0 1.87 1.002l2.872-.87a1.5 1.5 0 0 0 1-1.87L20.656 5.968a1.5 1.5 0 0 0-1.87-1.001l-2.871.87Z" clip-rule="evenodd"/>
  </g>
  <defs>
    <clipPath id="a">
      <path fill="#fff" d="M.5 0h24v24H.5z"/>
    </clipPath>
  </defs>
</svg>
